<svg xmlns="http://www.w3.org/2000/svg" viewBox="0 0 64 64" role="img" aria-label="GRWN">
  <rect width="64" height="64" rx="14" fill="#173049"/>
  <g transform="translate(32,32) scale(0.3) translate(-196.1,-108)">
    <path d="M141.307,115.988L166.148,153.841C167.43,155.794 169.602,156.979 171.938,157C174.275,157.02 176.467,155.874 177.784,153.943L187,140.426C187,140.426 196.216,153.943 196.216,153.943C197.624,156.007 200.024,157.165 202.516,156.981C205.007,156.797 207.212,155.299 208.3,153.051L250.885,65.105L238.284,59.003L200.971,136.064C200.971,136.064 192.784,124.057 192.784,124.057C191.48,122.144 189.315,121 187,121C184.685,121 182.52,122.144 181.216,124.057L172.111,137.411L153.012,108.307L141.307,115.988Z" fill="#E83F6F"/>
  </g>
</svg>
