<svg viewBox="0 0 100 100" xmlns="http://www.w3.org/2000/svg" role="img" aria-label="Growie">
  <line x1="50" y1="24" x2="50" y2="13" stroke="#1A5D85" stroke-width="3" stroke-linecap="round"/>
  <path d="M50 3 L52.6 10 L60 12.6 L52.6 15.2 L50 22 L47.4 15.2 L40 12.6 L47.4 10 Z" fill="#F5B400"/>
  <circle cx="22" cy="52" r="6.5" fill="#1A5D85"/>
  <circle cx="78" cy="52" r="6.5" fill="#1A5D85"/>
  <rect x="27" y="26" width="46" height="52" rx="18" fill="#E83F6F"/>
  <rect x="27" y="26" width="46" height="16" rx="12" fill="#C72C58" opacity="0.30"/>
  <circle cx="50" cy="49" r="15" fill="#fff"/>
  <circle cx="50" cy="49" r="9" fill="#2274A5"/>
  <circle cx="50" cy="49" r="4" fill="#173049"/>
  <circle cx="53.4" cy="45.6" r="1.9" fill="#fff"/>
  <circle cx="35" cy="63" r="3.4" fill="#FF8AB0" opacity="0.85"/>
  <circle cx="65" cy="63" r="3.4" fill="#FF8AB0" opacity="0.85"/>
  <path d="M41 68 Q50 75 59 68" stroke="#173049" stroke-width="2.8" fill="none" stroke-linecap="round"/>
</svg>
